<svg width="41" height="44" viewBox="0 0 41 44" fill="none" xmlns="http://www.w3.org/2000/svg">
<path d="M35.875 24.6564V17.6432C35.8713 14.5184 34.5829 11.4956 32.2378 9.11002C29.8928 6.72445 26.6425 5.13009 23.0625 4.60929V2.2054C23.0625 1.62049 22.7925 1.05954 22.312 0.645948C21.8314 0.232354 21.1796 0 20.5 0C19.8204 0 19.1686 0.232354 18.688 0.645948C18.2075 1.05954 17.9375 1.62049 17.9375 2.2054V4.60929C14.3575 5.13009 11.1072 6.72445 8.76218 9.11002C6.41713 11.4956 5.12868 14.5184 5.125 17.6432V24.6564C3.62965 25.1114 2.33443 25.9533 1.4169 27.0668C0.499376 28.1802 0.0044575 29.5106 0 30.8756V35.2865C0 35.8714 0.269977 36.4323 0.750539 36.8459C1.2311 37.2595 1.88288 37.4919 2.5625 37.4919H10.6088C11.1988 39.3606 12.4871 41.0104 14.2747 42.1866C16.0622 43.3628 18.2499 44 20.5 44C22.7501 44 24.9378 43.3628 26.7253 42.1866C28.5129 41.0104 29.8011 39.3606 30.3912 37.4919H38.4375C39.1171 37.4919 39.7689 37.2595 40.2495 36.8459C40.73 36.4323 41 35.8714 41 35.2865V30.8756C40.9955 29.5106 40.5006 28.1802 39.5831 27.0668C38.6656 25.9533 37.3703 25.1114 35.875 24.6564ZM10.25 17.6432C10.25 15.3036 11.3299 13.0598 13.2522 11.4054C15.1744 9.75103 17.7815 8.82161 20.5 8.82161C23.2185 8.82161 25.8256 9.75103 27.7478 11.4054C29.6701 13.0598 30.75 15.3036 30.75 17.6432V24.2594H10.25V17.6432ZM20.5 39.6973C19.6056 39.6926 18.7282 39.4866 17.955 39.0997C17.1818 38.7128 16.5397 38.1585 16.0925 37.4919H24.9075C24.4603 38.1585 23.8182 38.7128 23.045 39.0997C22.2718 39.4866 21.3944 39.6926 20.5 39.6973ZM35.875 33.0811H5.125V30.8756C5.125 30.2907 5.39498 29.7298 5.87554 29.3162C6.3561 28.9026 7.00788 28.6702 7.6875 28.6702H33.3125C33.9921 28.6702 34.6439 28.9026 35.1245 29.3162C35.605 29.7298 35.875 30.2907 35.875 30.8756V33.0811Z" fill="#F9FDE9"/>
</svg>
