<svg width="9" height="5" viewBox="0 0 9 5" fill="none" xmlns="http://www.w3.org/2000/svg">
<path d="M8.11126 0.193862C7.96293 0.0696944 7.76228 0 7.55313 0C7.34399 0 7.14334 0.0696944 6.99501 0.193862L4.15292 2.55386L1.35042 0.193862C1.20209 0.0696944 1.00145 0 0.792299 0C0.583152 0 0.382502 0.0696944 0.234174 0.193862C0.159972 0.255837 0.101076 0.329571 0.0608845 0.41081C0.0206926 0.49205 0 0.579187 0 0.667195C0 0.755203 0.0206926 0.84234 0.0608845 0.92358C0.101076 1.00482 0.159972 1.07855 0.234174 1.14053L3.59084 3.9672C3.66444 4.02968 3.752 4.07928 3.84847 4.11312C3.94494 4.14697 4.04841 4.16439 4.15292 4.16439C4.25743 4.16439 4.36091 4.14697 4.45738 4.11312C4.55385 4.07928 4.64141 4.02968 4.71501 3.9672L8.11126 1.14053C8.18546 1.07855 8.24435 1.00482 8.28455 0.92358C8.32474 0.84234 8.34543 0.755203 8.34543 0.667195C8.34543 0.579187 8.32474 0.49205 8.28455 0.41081C8.24435 0.329571 8.18546 0.255837 8.11126 0.193862Z" fill="#485419"/>
</svg>
