<svg width="12" height="13" viewBox="0 0 12 13" fill="none" xmlns="http://www.w3.org/2000/svg">
<path d="M11.8315 11.7779L9.60683 9.56954C10.4704 8.49201 10.8886 7.12432 10.7754 5.74769C10.6623 4.37106 10.0264 3.09014 8.9985 2.16831C7.97062 1.24647 6.62888 0.753791 5.24917 0.791574C3.86946 0.829356 2.55665 1.39473 1.58069 2.37144C0.604718 3.34815 0.0397752 4.66195 0.00202138 6.04271C-0.0357324 7.42347 0.456573 8.76623 1.37771 9.79489C2.29884 10.8236 3.57879 11.4599 4.95437 11.5732C6.32996 11.6864 7.69661 11.2679 8.77332 10.4037L10.98 12.612C11.0358 12.6683 11.1021 12.7129 11.1752 12.7434C11.2482 12.7739 11.3266 12.7896 11.4058 12.7896C11.4849 12.7896 11.5633 12.7739 11.6364 12.7434C11.7094 12.7129 11.7758 12.6683 11.8315 12.612C11.9396 12.5001 12 12.3506 12 12.195C12 12.0393 11.9396 11.8898 11.8315 11.7779ZM5.40932 10.4037C4.57914 10.4037 3.76759 10.1573 3.07732 9.69573C2.38704 9.23416 1.84904 8.5781 1.53134 7.81052C1.21364 7.04294 1.13051 6.19833 1.29247 5.38347C1.45444 4.56862 1.85421 3.82012 2.44124 3.23265C3.02827 2.64517 3.7762 2.24509 4.59043 2.08301C5.40467 1.92092 6.24865 2.00411 7.01564 2.32205C7.78263 2.63999 8.4382 3.1784 8.89942 3.8692C9.36065 4.56001 9.60683 5.37217 9.60683 6.20299C9.60683 7.31708 9.16459 8.38554 8.37741 9.17332C7.59022 9.96111 6.52257 10.4037 5.40932 10.4037Z" fill="#485419"/>
</svg>
