<svg width="11" height="9" viewBox="0 0 11 9" fill="none" xmlns="http://www.w3.org/2000/svg">
<path d="M1.7558 0.328571C1.56749 0.122255 1.30999 0.00410172 1.03994 0.000104787C0.769888 -0.00389214 0.509406 0.106595 0.315798 0.307259C0.12219 0.507923 0.0113153 0.782328 0.00756454 1.07011C0.00381382 1.35789 0.107495 1.63547 0.295798 1.84178L2.6358 4.2821L0.295798 6.72242C0.20207 6.82149 0.127675 6.93935 0.0769067 7.06921C0.026138 7.19906 0 7.33835 0 7.47903C0 7.6197 0.026138 7.75899 0.0769067 7.88885C0.127675 8.01871 0.20207 8.13657 0.295798 8.23563C0.388761 8.33551 0.499362 8.41479 0.621222 8.46889C0.743081 8.52299 0.873786 8.55085 1.0058 8.55085C1.13781 8.55085 1.26852 8.52299 1.39038 8.46889C1.51223 8.41479 1.62284 8.33551 1.7158 8.23563L4.7158 5.03871C4.80953 4.93964 4.88392 4.82178 4.93469 4.69192C4.98546 4.56206 5.0116 4.42278 5.0116 4.2821C5.0116 4.14142 4.98546 4.00214 4.93469 3.87228C4.88392 3.74242 4.80953 3.62456 4.7158 3.5255L1.7558 0.328571ZM10.2558 3.5255L7.2558 0.328571C7.06749 0.127907 6.8121 0.0151751 6.5458 0.0151751C6.2795 0.0151751 6.0241 0.127907 5.8358 0.328571C5.64749 0.529236 5.54171 0.801395 5.54171 1.08518C5.54171 1.36896 5.64749 1.64112 5.8358 1.84178L8.1358 4.2821L5.8358 6.72242C5.74207 6.82149 5.66768 6.93935 5.61691 7.06921C5.56614 7.19906 5.54 7.33835 5.54 7.47903C5.54 7.6197 5.56614 7.75899 5.61691 7.88885C5.66768 8.01871 5.74207 8.13657 5.8358 8.23563C5.92876 8.33551 6.03936 8.41479 6.16122 8.46889C6.28308 8.52299 6.41379 8.55085 6.5458 8.55085C6.67781 8.55085 6.80852 8.52299 6.93038 8.46889C7.05223 8.41479 7.16284 8.33551 7.2558 8.23563L10.2558 5.03871C10.3522 4.94249 10.4297 4.82687 10.484 4.69853C10.5382 4.57019 10.568 4.43168 10.5718 4.29099C10.5755 4.15029 10.553 4.01021 10.5056 3.87882C10.4583 3.74743 10.387 3.62735 10.2958 3.5255H10.2558Z" fill="#485419"/>
</svg>
