<svg width="21" height="22" viewBox="0 0 21 22" fill="none" xmlns="http://www.w3.org/2000/svg">
<path d="M4.33524 11.5368L8.31024 16.8517C8.40289 16.9756 8.51312 17.0742 8.63463 17.1418C8.75613 17.2094 8.88653 17.2448 9.01839 17.2459C9.15025 17.247 9.28098 17.2138 9.40311 17.1481C9.52524 17.0825 9.63639 16.9857 9.73021 16.8634C9.82403 16.741 9.89868 16.5955 9.9499 16.435C10.0011 16.2746 10.0279 16.1024 10.0287 15.9283C10.0295 15.7541 10.0044 15.5815 9.95468 15.4202C9.90498 15.259 9.83171 15.1122 9.73906 14.9883L7.45337 11.9454L19.0431 12.0408C19.3084 12.043 19.5634 11.9059 19.7521 11.6598C19.9408 11.4137 20.0477 11.0787 20.0494 10.7285C20.051 10.3783 19.9472 10.0416 19.7609 9.79238C19.5745 9.5432 19.3208 9.40198 19.0556 9.3998L7.46583 9.30445L9.78005 6.29944C9.87436 6.17745 9.94944 6.03201 10.001 5.87152C10.0525 5.71102 10.0794 5.53864 10.0803 5.36432C10.0811 5.19 10.0558 5.01719 10.0058 4.85585C9.95575 4.69452 9.88205 4.54786 9.7889 4.42433C9.69652 4.2998 9.58639 4.20065 9.46485 4.13261C9.34331 4.06457 9.21277 4.02898 9.08076 4.02789C8.94875 4.02681 8.81788 4.06024 8.69571 4.12628C8.57353 4.19232 8.46247 4.28965 8.36893 4.41265L4.34408 9.66172C4.25245 9.78656 4.18039 9.93405 4.13203 10.0958C4.0305 10.4164 4.0288 10.777 4.1273 11.0993C4.17412 11.2618 4.24479 11.4105 4.33524 11.5368ZM0.99988 21.1362C1.26509 21.1383 1.5201 21.0013 1.7088 20.7552C1.8975 20.5091 2.00444 20.1741 2.00609 19.8239L2.09332 1.33697C2.09497 0.986752 1.9912 0.65001 1.80484 0.400826C1.61847 0.151643 1.36478 0.0104278 1.09957 0.0082458C0.834355 0.00606378 0.579348 0.143093 0.390648 0.38919C0.201946 0.635289 0.0950087 0.970297 0.0933563 1.32051L0.00613119 19.8074C0.0044788 20.1577 0.108247 20.4944 0.294612 20.7436C0.480975 20.9928 0.734669 21.134 0.99988 21.1362Z" fill="#485419"/>
</svg>
